<?xml version="1.0" standalone="no"?>
<!DOCTYPE svg PUBLIC "-//W3C//DTD SVG 20010904//EN"
 "http://www.w3.org/TR/2001/REC-SVG-20010904/DTD/svg10.dtd">
<svg version="1.0" xmlns="http://www.w3.org/2000/svg"
 width="655pt" height="655pt" viewBox="0 0 2668.000000 2288.000000"
 preserveAspectRatio="xMidYMid meet">

<g transform="translate(0.000000,3388.000000) scale(0.100000,-0.100000)"
fill="#fff" stroke="none">
<path d="M13740 25320 c-83 -15 -160 -86 -184 -172 -9 -29 -70 -361 -137 -738
-102 -581 -120 -696 -116 -757 6 -76 33 -151 70 -192 30 -32 94 -61 137 -61
80 0 170 73 215 174 29 65 31 77 166 846 122 697 123 712 74 795 -45 77 -138
120 -225 105z"/>
<path d="M10041 24038 c-110 -54 -149 -191 -88 -310 28 -54 698 -928 751 -980
54 -52 110 -72 186 -66 80 6 135 43 173 118 25 48 28 63 24 117 -3 40 -13 77
-29 105 -28 51 -684 906 -736 961 -75 78 -189 101 -281 55z"/>
<path d="M16604 23376 c-49 -23 -1009 -676 -1091 -742 -56 -46 -93 -122 -93
-194 0 -45 6 -66 33 -110 57 -95 168 -130 279 -87 52 20 1023 681 1104 752 65
56 94 113 94 186 -1 168 -168 269 -326 195z"/>
<path d="M13325 22859 c-723 -47 -1441 -548 -2000 -1394 -144 -217 -212 -337
-338 -593 -156 -314 -274 -613 -381 -962 -95 -310 -206 -775 -206 -866 0 -52
22 -124 49 -163 76 -107 250 -111 336 -9 43 51 61 100 99 275 128 584 278
1029 506 1498 225 463 480 836 775 1130 323 323 632 508 990 593 99 24 129 27
305 27 182 0 203 -2 304 -28 475 -124 878 -472 1205 -1044 316 -551 522 -1272
596 -2083 18 -200 32 -251 80 -308 46 -53 105 -76 185 -70 82 6 135 43 174
121 26 53 29 66 28 156 -2 115 -32 400 -68 631 -96 626 -307 1269 -569 1741
-75 134 -245 391 -329 496 -479 595 -1092 895 -1741 852z"/>
<path d="M13175 21904 c-346 -54 -659 -226 -973 -537 -438 -432 -795 -1093
-1027 -1898 -61 -212 -122 -475 -160 -694 -33 -181 -30 -254 9 -341 45 -98 91
-134 171 -134 59 0 113 28 159 81 54 64 76 118 102 257 74 388 141 653 234
934 341 1025 914 1739 1495 1863 114 24 288 23 387 -3 192 -51 353 -147 513
-306 512 -506 829 -1448 884 -2625 9 -184 10 -196 38 -249 41 -81 93 -115 182
-120 82 -5 130 16 184 78 55 64 61 103 54 328 -15 444 -76 883 -184 1307 -238
940 -688 1629 -1254 1919 -259 132 -546 182 -814 140z"/>
<path d="M9500 20749 c-811 -28 -744 -24 -806 -54 -201 -98 -160 -383 61 -424
59 -11 1163 23 1211 37 111 34 174 113 174 219 -1 107 -61 188 -164 218 -54
16 -103 17 -476 4z"/>
<path d="M17250 20610 c-636 -74 -639 -74 -690 -100 -195 -99 -160 -373 54
-421 47 -10 121 -4 682 60 346 40 652 78 679 86 149 42 219 196 149 325 -45
83 -120 121 -233 119 -36 -1 -325 -32 -641 -69z"/>
<path d="M9620 18511 c-217 -65 -413 -126 -435 -137 -54 -25 -120 -93 -135
-139 -20 -61 -9 -148 26 -197 44 -64 110 -93 204 -92 65 1 125 16 470 118 217
65 417 130 444 144 130 70 162 239 67 345 -49 55 -101 77 -181 76 -53 0 -136
-21 -460 -118z"/>
<path d="M15880 18511 c-78 -25 -118 -62 -151 -135 -51 -116 20 -258 151 -301
36 -12 572 -129 1107 -241 133 -29 241 16 289 119 42 91 28 186 -39 255 -48
50 -94 70 -230 97 -68 13 -315 65 -548 115 -419 90 -530 107 -579 91z"/>
<path d="M8426 18195 c-50 -18 -103 -69 -129 -125 -26 -56 -28 200 23 -3750
34 -2660 41 -3031 55 -3071 53 -153 213 -204 355 -113 l35 23 1240 6 c1114 6
1477 12 1489 26 2 2 7 183 11 402 l7 397 -79 0 c-63 0 -2526 -164 -2598 -173
-19 -2 -20 5 -23 178 -2 99 -20 1494 -41 3100 l-38 2920 -23 53 c-50 114 -170
168 -284 127z"/>
<path d="M13165 18091 c-50 -23 -99 -74 -121 -126 -22 -50 -21 -104 11 -1585
13 -602 20 -1098 17 -1101 -4 -4 -86 -32 -182 -64 -242 -80 -288 -105 -340
-183 -75 -114 -34 -248 92 -302 74 -32 167 -24 320 26 65 20 120 36 122 33 2
-2 11 -357 20 -789 10 -432 21 -801 27 -821 24 -93 105 -160 199 -167 81 -6
138 16 188 74 68 77 66 38 47 994 -10 473 -16 862 -14 864 10 9 1632 536 1636
532 7 -6 -5 -43 -184 -551 -85 -242 -183 -521 -218 -620 -175 -498 -341 -971
-373 -1060 -61 -169 -48 -278 44 -353 68 -57 160 -65 244 -22 73 37 108 95
168 275 22 66 79 230 127 365 47 135 150 425 227 645 180 516 375 1070 478
1360 111 312 115 386 29 480 -53 57 -109 79 -191 73 -59 -4 -591 -174 -1737
-553 -140 -47 -257 -82 -260 -79 -3 3 -7 83 -9 177 -2 95 -14 651 -26 1237
-22 1054 -23 1066 -45 1115 -12 28 -34 63 -49 79 -60 63 -167 84 -247 47z"/>
<path d="M17696 18028 c-59 -16 -130 -90 -150 -157 -13 -43 -21 -242 -47
-1080 -17 -564 -35 -1030 -39 -1035 -5 -5 -281 -32 -613 -61 -668 -58 -661
-57 -728 -132 -46 -51 -63 -100 -57 -169 10 -119 106 -204 232 -204 33 0 305
21 604 46 298 26 545 44 549 41 6 -6 -97 -3489 -103 -3496 -3 -4 -384 10 -824
29 -670 30 -1712 37 -1771 13 -24 -11 -27 -19 -38 -105 -7 -51 -17 -199 -22
-328 -11 -263 -14 -248 61 -271 39 -12 2608 -54 2747 -44 111 7 182 35 231 90
21 24 44 61 51 82 9 27 30 604 74 2050 38 1235 66 2016 72 2021 6 5 210 26
455 46 245 21 472 42 504 48 75 12 124 37 163 82 87 98 65 258 -45 331 -71 47
-98 47 -601 4 -255 -22 -465 -38 -468 -36 -2 2 11 449 28 993 17 544 28 1010
25 1036 -10 95 -76 178 -160 203 -56 17 -75 17 -130 3z"/>
<path d="M11695 17786 c-297 -69 -553 -311 -764 -726 -212 -414 -340 -894
-407 -1520 -21 -192 -24 -707 -5 -885 43 -421 129 -761 260 -1029 303 -622
833 -755 1289 -322 88 83 217 251 268 350 48 91 56 170 25 241 -29 65 -46 83
-106 111 -122 58 -229 11 -330 -142 -140 -212 -264 -325 -382 -347 -167 -32
-369 243 -472 645 -70 270 -103 565 -104 903 0 536 84 1045 245 1489 162 447
422 778 612 778 87 0 150 -45 248 -176 78 -104 111 -132 176 -152 69 -21 126
-12 186 27 101 67 125 204 56 326 -114 203 -299 360 -490 417 -77 23 -230 29
-305 12z"/>
<path d="M9772 17769 c-74 -37 -124 -123 -141 -245 -6 -38 -29 -1031 -52
-2206 -34 -1726 -40 -2145 -30 -2178 15 -52 74 -118 126 -141 125 -57 279 17
314 151 5 19 29 1007 52 2195 47 2362 48 2229 -12 2334 -57 99 -166 137 -257
90z"/>
<path d="M11785 12270 c-26 -29 -37 -253 -33 -678 l3 -344 24 -19 c20 -16 38
-19 135 -16 128 2 177 20 245 88 68 69 86 117 86 239 0 94 -3 111 -27 160 -60
121 -151 188 -265 195 l-58 4 -6 163 c-3 90 -11 175 -17 189 -17 42 -58 51
-87 19z m172 -579 c50 -36 73 -84 73 -151 0 -44 -4 -56 -29 -81 -23 -23 -39
-29 -70 -29 l-41 0 0 145 c0 163 1 164 67 116z"/>
<path d="M14175 11906 c-54 -24 -85 -68 -95 -132 -5 -33 -16 -79 -25 -104 -37
-102 -28 -223 23 -328 60 -123 177 -156 272 -75 131 110 147 469 27 593 -56
58 -135 76 -202 46z m71 -256 c27 -74 8 -260 -27 -260 -22 0 -46 176 -35 254
6 41 10 47 28 44 14 -2 26 -15 34 -38z"/>
<path d="M13095 11866 c-47 -20 -90 -62 -135 -128 -47 -70 -71 -146 -72 -222
-1 -73 17 -119 61 -159 61 -55 122 -67 209 -41 21 6 22 4 22 -44 0 -69 -19
-154 -33 -149 -7 2 -29 35 -50 73 -44 80 -59 94 -102 94 -76 0 -85 -82 -23
-212 79 -167 201 -215 298 -118 122 122 117 526 -10 796 -20 45 -47 91 -59
103 -24 24 -62 26 -106 7z m49 -221 c27 -140 26 -155 -13 -182 -19 -13 -47
-23 -63 -23 -24 0 -32 6 -44 37 -25 60 1 160 63 241 31 42 35 37 57 -73z"/>
<path d="M12527 11860 c-103 -20 -198 -197 -200 -375 -1 -96 21 -154 76 -202
59 -52 131 -54 244 -7 6 3 16 -10 23 -30 13 -42 62 -86 94 -86 34 0 74 36 81
73 7 38 -15 133 -79 328 -50 154 -82 222 -127 274 -32 36 -43 39 -112 25z m14
-363 l-31 -32 0 37 c0 20 5 61 12 90 l11 53 20 -59 19 -58 -31 -31z"/>
<path d="M13744 11831 c-75 -54 -112 -144 -121 -291 -14 -235 107 -393 267
-350 54 15 110 68 110 104 0 71 -61 118 -128 98 -46 -14 -57 -5 -77 61 -33
111 -11 239 54 312 49 57 37 95 -29 95 -25 0 -50 -10 -76 -29z"/>
<path d="M13473 11445 c-55 -23 -69 -83 -34 -141 55 -90 179 -10 138 88 -23
56 -57 73 -104 53z"/>
</g>
</svg>
